<svg xmlns="http://www.w3.org/2000/svg" xmlns:xlink="http://www.w3.org/1999/xlink" width="83" height="26" viewBox="0 0 83 26">
  <defs>
    <clipPath id="clip-path">
      <rect id="사각형_22" data-name="사각형 22" width="83" height="26" fill="#174193"/>
    </clipPath>
  </defs>
  <g id="그룹_15" data-name="그룹 15" transform="translate(-330 -41)">
    <g id="그룹_14" data-name="그룹 14">
      <g id="그룹_13" data-name="그룹 13">
        <g id="logo" transform="translate(330 43)">
          <g id="그룹_1" data-name="그룹 1" transform="translate(0 -2)" clip-path="url(#clip-path)">
            <path id="패스_1" data-name="패스 1" d="M366.823,175.874v2.76h-3.035c1.887,1.5,2.891,4.029,1.26,6.365-2.4,3.434-8.335,3.684-11.671,2.507-2.192-.773-4.95-2.842-4.216-6.036a5.532,5.532,0,0,1,1.97-2.837h-3.293v-2.76Zm-13.732,4.934a2.211,2.211,0,0,0-.022,2.771c1.62,2.059,7.51,2.09,8.939-.273a2.105,2.105,0,0,0-.066-2.288c-1.46-2.246-7.233-2.2-8.851-.209" transform="translate(-325.364 -162.379)" fill="#174193"/>
            <path id="패스_2" data-name="패스 2" d="M1004.628,29.22h2.906V24.811l.1-.115h3.293l.1.115V36.658h-3.487V31.981h-2.809a6.6,6.6,0,0,1-2.078,3.206,6.7,6.7,0,0,1-8.023.276,5.9,5.9,0,0,1,.836-10.189c3.242-1.611,8.028-.411,9.168,3.946M997.963,27.4c-3.31.474-3.228,6.252.306,6.495,4.162.285,4.167-7.135-.306-6.495" transform="translate(-927.975 -22.703)" fill="#174193"/>
            <path id="패스_3" data-name="패스 3" d="M367.552,0V2.224h7.362V5.061h-2.325a4.913,4.913,0,0,0,.439.744c1.12,2.167.061,4.157-1.542,5.346-2.716,2.015-7.5,2.064-10.39.54-2.35-1.241-3.943-3.905-1.939-6.63h-2.325V2.224h7.3V0Zm-2.79,5.083c-1.245.134-3.678,1.1-3.025,3.087.595,1.814,3.773,2.058,5.136,1.874,1-.136,3.028-.761,3.191-2.191.318-2.773-3.809-2.931-5.3-2.77" transform="translate(-333.778)" fill="#174193"/>
            <path id="패스_4" data-name="패스 4" d="M1037.942,197.858v1.994h9.3v-1.994h3.423v9.048h-15.337a2.031,2.031,0,0,1-.546-.272,3.785,3.785,0,0,1-.262-.533v-8.243Zm9.3,4.754h-9.3v1.457h9.3Z" transform="translate(-967.682 -182.676)" fill="#174193"/>
            <path id="패스_5" data-name="패스 5" d="M13.884,29.979v2.76H9.041c.053,3.706,1.606,6.942,4.585,8.283L12.176,43.1c-.154.154-.327.021-.486-.045A9.874,9.874,0,0,1,8.01,39.675L7.1,37.953a7.088,7.088,0,0,1-1.972,2.835,11.7,11.7,0,0,1-3.552,2.429L0,41.021a8.943,8.943,0,0,0,5.3-8.282H.452v-2.76Z" transform="translate(0 -27.679)" fill="#174193"/>
            <path id="패스_6" data-name="패스 6" d="M690.467,29.979c1.7.214,1.442,2.04,1.229,3.529-.878,6.137-4.025,12.526-8.33,16.1l-2.682-1.914A22.746,22.746,0,0,0,687.53,36.92a16.342,16.342,0,0,0,.774-4.1h-7.168V29.979Z" transform="translate(-636.707 -27.679)" fill="#174193"/>
            <rect id="사각형_20" data-name="사각형 20" width="3.358" height="22.39" transform="translate(57.667 1.917)" fill="#174193"/>
            <path id="패스_7" data-name="패스 7" d="M42.4,218.843v4.907H55.252v2.76h-15.6c-.209,0-.678-.563-.678-.805v-6.863Z" transform="translate(-36.461 -202.051)" fill="#174193"/>
            <rect id="사각형_21" data-name="사각형 21" width="3.423" height="15.642" transform="translate(15.369 1.917)" fill="#174193"/>
          </g>
        </g>
      </g>
    </g>
  </g>
</svg>
