<svg xmlns="http://www.w3.org/2000/svg" width="45" height="45" viewBox="0 0 45 45">
  <g id="그룹_9" data-name="그룹 9" transform="translate(-2246 -4883)">
    <path id="패스_10" data-name="패스 10" d="M366.823,175.874v2.76h-3.035c1.887,1.5,2.891,4.029,1.26,6.365-2.4,3.434-8.335,3.684-11.671,2.507-2.192-.773-4.95-2.842-4.216-6.036a5.532,5.532,0,0,1,1.97-2.837h-3.293v-2.76Zm-13.732,4.934a2.211,2.211,0,0,0-.022,2.771c1.62,2.059,7.51,2.09,8.939-.273a2.105,2.105,0,0,0-.066-2.288c-1.46-2.246-7.233-2.2-8.851-.209" transform="translate(1922.636 4730.621)" fill="#174193"/>
    <path id="패스_11" data-name="패스 11" d="M367.552,0V2.224h7.362V5.061h-2.325a4.913,4.913,0,0,0,.439.744c1.12,2.167.061,4.157-1.542,5.346-2.716,2.015-7.5,2.064-10.39.54-2.35-1.241-3.943-3.905-1.939-6.63h-2.325V2.224h7.3V0Zm-2.79,5.083c-1.245.134-3.678,1.1-3.025,3.087.595,1.814,3.773,2.058,5.136,1.874,1-.136,3.028-.761,3.191-2.191.318-2.773-3.809-2.931-5.3-2.77" transform="translate(1914.222 4893)" fill="#174193"/>
    <path id="패스_12" data-name="패스 12" d="M13.884,29.979v2.76H9.041c.053,3.706,1.606,6.942,4.585,8.283L12.176,43.1c-.154.154-.327.021-.486-.045A9.874,9.874,0,0,1,8.01,39.675L7.1,37.953a7.088,7.088,0,0,1-1.972,2.835,11.7,11.7,0,0,1-3.552,2.429L0,41.021a8.943,8.943,0,0,0,5.3-8.282H.452v-2.76Z" transform="translate(2248 4865.321)" fill="#174193"/>
    <path id="패스_13" data-name="패스 13" d="M42.4,218.843v4.907H55.252v2.76h-15.6c-.209,0-.678-.563-.678-.805v-6.863Z" transform="translate(2211.539 4690.949)" fill="#174193"/>
    <rect id="사각형_41" data-name="사각형 41" width="3.423" height="15.642" transform="translate(2263.369 4894.917)" fill="#174193"/>
    <rect id="사각형_42" data-name="사각형 42" width="45" height="45" transform="translate(2246 4883)" fill="none"/>
  </g>
</svg>
